<mxfile host="app.diagrams.net" modified="2023-07-02T04:40:55.414Z" agent="Mozilla/5.0 (Macintosh; Intel Mac OS X 10_15_7) AppleWebKit/537.36 (KHTML, like Gecko) Chrome/114.0.0.0 Safari/537.36" version="21.5.2" etag="sM4Tcfm1KAelel2RF7J2" type="github">
  <diagram name="Page-1" id="6GBuNJ_Bb72r_Xd6ltIH">
    <mxGraphModel>
      <root>
        <mxCell id="0" />
        <mxCell id="1" parent="0" />
      </root>
    </mxGraphModel>
  </diagram>
</mxfile>
